<?xml version="1.0" standalone="no"?>
<!DOCTYPE svg PUBLIC "-//W3C//DTD SVG 20010904//EN"
 "http://www.w3.org/TR/2001/REC-SVG-20010904/DTD/svg10.dtd">
<svg version="1.0" xmlns="http://www.w3.org/2000/svg"
 width="1200.000000pt" height="1200.000000pt" viewBox="0 0 1200.000000 1200.000000"
 preserveAspectRatio="xMidYMid meet">

<g transform="translate(0.000000,1200.000000) scale(0.100000,-0.100000)"
fill="#000000" stroke="none">
<path d="M2643 9889 c-155 -49 -274 -182 -303 -340 -7 -36 -9 -1184 -8 -3349
l3 -3295 23 -54 c13 -30 32 -67 43 -83 11 -15 18 -31 15 -36 -2 -4 5 -19 16
-32 l20 -25 -17 30 c-17 30 -17 30 18 -5 19 -19 33 -37 31 -39 -6 -7 28 -41
40 -41 6 0 0 9 -14 20 -34 27 -19 25 23 -2 68 -45 72 -48 39 -32 -19 8 -36 13
-40 10 -6 -7 -7 -6 43 -35 91 -53 -110 -50 3430 -52 1815 -1 3318 1 3340 6 36
7 78 24 157 67 41 22 112 101 147 162 66 114 61 -174 61 3449 0 2470 -3 3309
-11 3344 -25 98 -137 231 -251 296 -106 61 166 57 -3447 56 -3241 0 -3297 0
-3358 -20z m6997 -234 c0 -5 -5 -3 -10 5 -5 8 -10 20 -10 25 0 6 5 3 10 -5 5
-8 10 -19 10 -25z m50 -3413 c0 -2160 -3 -3241 -10 -3237 -7 4 -10 1101 -10
3258 0 2103 4 3247 10 3237 6 -10 10 -1182 10 -3258z m-3406 792 l246 -431
-443 -812 -442 -811 -518 0 -519 0 20 33 c11 17 331 578 712 1245 381 667 694
1212 695 1210 1 -2 113 -197 249 -434z m920 -1611 c135 -237 246 -434 246
-437 0 -3 -223 -6 -495 -6 -272 0 -495 3 -495 7 0 3 15 34 34 67 18 34 49 90
69 126 100 185 332 611 354 648 14 24 28 40 33 35 4 -4 118 -202 254 -440z
m2326 -2746 c0 -2 -10 -12 -22 -23 l-23 -19 19 23 c18 21 26 27 26 19z m-130
-87 c-8 -5 -19 -10 -25 -10 -5 0 -3 5 5 10 8 5 20 10 25 10 6 0 3 -5 -5 -10z
m-6687 -27 c-7 -2 -19 -2 -25 0 -7 3 -2 5 12 5 14 0 19 -2 13 -5z m6587 -3
c-14 -4 -1494 -7 -3290 -7 l-3265 2 3270 5 c1799 3 3279 6 3290 7 14 1 13 -1
-5 -7z"/>
</g>
</svg>
